<?xml version="1.0" encoding="utf-8"?>
<!-- created with bpmn-js / http://bpmn.io -->
<!DOCTYPE svg PUBLIC "-//W3C//DTD SVG 1.1//EN" "http://www.w3.org/Graphics/SVG/1.1/DTD/svg11.dtd">
<svg xmlns="http://www.w3.org/2000/svg" xmlns:xlink="http://www.w3.org/1999/xlink" width="892" height="506" viewBox="-5 -5 892 506" version="1.1"><g class="djs-group"><g class="djs-element djs-shape" data-element-id="node_8ad493b1-9cfc-47b4-8ee8-f91b4bbd6fea" style="display: block;" transform="matrix(1 0 0 1 105 226)"><g class="djs-visual"><rect x="0" y="0" width="86" height="45" rx="10" ry="10" style="stroke-linecap: round; stroke-linejoin: round; stroke: rgb(34, 36, 42); stroke-width: 2px; fill: white; fill-opacity: 0.95;"/><text lineHeight="1.2" class="djs-label" style="font-family: Arial, sans-serif; font-size: 12px; font-weight: normal; fill: rgb(34, 36, 42);"><tspan x="13.326171875" y="26.1">Start Claim</tspan></text></g><rect class="djs-hit djs-hit-all" x="0" y="0" width="86" height="45" style="fill: none; stroke-opacity: 0; stroke: white; stroke-width: 15px;"/><rect x="-5" y="-5" rx="14" width="96" height="55" class="djs-outline" style="fill: none;"/></g></g><g class="djs-group"><g class="djs-element djs-shape" data-element-id="node_833e11ba-a2b2-4cdf-9a0b-94445e41bac3" style="display: block;" transform="matrix(1 0 0 1 507 451)"><g class="djs-visual"><rect x="0" y="0" width="152" height="45" rx="10" ry="10" style="stroke-linecap: round; stroke-linejoin: round; stroke: rgb(34, 36, 42); stroke-width: 2px; fill: white; fill-opacity: 0.95;"/><text lineHeight="1.2" class="djs-label" style="font-family: Arial, sans-serif; font-size: 12px; font-weight: normal; fill: rgb(34, 36, 42);"><tspan x="15.6484375" y="26.1">Review Driving History</tspan></text></g><rect class="djs-hit djs-hit-all" x="0" y="0" width="152" height="45" style="fill: none; stroke-opacity: 0; stroke: white; stroke-width: 15px;"/><rect x="-5" y="-5" rx="14" width="162" height="55" class="djs-outline" style="fill: none;"/></g></g><g class="djs-group"><g class="djs-element djs-shape" data-element-id="node_e7665c0c-3971-426a-9202-5da59a0cacd1" style="display: block;" transform="matrix(1 0 0 1 495 151)"><g class="djs-visual"><rect x="0" y="0" width="176" height="45" rx="10" ry="10" style="stroke-linecap: round; stroke-linejoin: round; stroke: rgb(34, 36, 42); stroke-width: 2px; fill: white; fill-opacity: 0.95;"/><text lineHeight="1.2" class="djs-label" style="font-family: Arial, sans-serif; font-size: 12px; font-weight: normal; fill: rgb(34, 36, 42);"><tspan x="13.1328125" y="26.1">Claim Approved or Rejected</tspan></text></g><rect class="djs-hit djs-hit-all" x="0" y="0" width="176" height="45" style="fill: none; stroke-opacity: 0; stroke: white; stroke-width: 15px;"/><rect x="-5" y="-5" rx="14" width="186" height="55" class="djs-outline" style="fill: none;"/></g></g><g class="djs-group"><g class="djs-element djs-shape" data-element-id="node_72f3005c-760a-4299-842f-4412b6216d76" style="display: block;" transform="matrix(1 0 0 1 504 75)"><g class="djs-visual"><rect x="0" y="0" width="158" height="45" rx="10" ry="10" style="stroke-linecap: round; stroke-linejoin: round; stroke: rgb(34, 36, 42); stroke-width: 2px; fill: white; fill-opacity: 0.95;"/><text lineHeight="1.2" class="djs-label" style="font-family: Arial, sans-serif; font-size: 12px; font-weight: normal; fill: rgb(34, 36, 42);"><tspan x="14.625" y="26.1">Evaluate Past Accidents</tspan></text></g><rect class="djs-hit djs-hit-all" x="0" y="0" width="158" height="45" style="fill: none; stroke-opacity: 0; stroke: white; stroke-width: 15px;"/><rect x="-5" y="-5" rx="14" width="168" height="55" class="djs-outline" style="fill: none;"/></g></g><g class="djs-group"><g class="djs-element djs-shape" data-element-id="node_7bcbd15b-2c8c-43bb-b4ce-8aaace44f6fc" style="display: block;" transform="matrix(1 0 0 1 516 226)"><g class="djs-visual"><rect x="0" y="0" width="134" height="45" rx="10" ry="10" style="stroke-linecap: round; stroke-linejoin: round; stroke: rgb(34, 36, 42); stroke-width: 2px; fill: white; fill-opacity: 0.95;"/><text lineHeight="1.2" class="djs-label" style="font-family: Arial, sans-serif; font-size: 12px; font-weight: normal; fill: rgb(34, 36, 42);"><tspan x="10.4873046875" y="26.1">Make Claim Decision</tspan></text></g><rect class="djs-hit djs-hit-all" x="0" y="0" width="134" height="45" style="fill: none; stroke-opacity: 0; stroke: white; stroke-width: 15px;"/><rect x="-5" y="-5" rx="14" width="144" height="55" class="djs-outline" style="fill: none;"/></g></g><g class="djs-group"><g class="djs-element djs-shape" data-element-id="node_bc578bbf-34ca-4ca9-b08d-9a8ad33d9ba1" style="display: block;" transform="matrix(1 0 0 1 519 0)"><g class="djs-visual"><rect x="0" y="0" width="128" height="45" rx="10" ry="10" style="stroke-linecap: round; stroke-linejoin: round; stroke: rgb(34, 36, 42); stroke-width: 2px; fill: white; fill-opacity: 0.95;"/><text lineHeight="1.2" class="djs-label" style="font-family: Arial, sans-serif; font-size: 12px; font-weight: normal; fill: rgb(34, 36, 42);"><tspan x="11.8173828125" y="26.1">Check Credit Score</tspan></text></g><rect class="djs-hit djs-hit-all" x="0" y="0" width="128" height="45" style="fill: none; stroke-opacity: 0; stroke: white; stroke-width: 15px;"/><rect x="-5" y="-5" rx="14" width="138" height="55" class="djs-outline" style="fill: none;"/></g></g><g class="djs-group"><g class="djs-element djs-shape" data-element-id="node_bba26c86-7112-4bae-a066-56150bfbd612" style="display: block;" transform="matrix(1 0 0 1 276 226)"><g class="djs-visual"><rect x="0" y="0" width="134" height="45" rx="10" ry="10" style="stroke-linecap: round; stroke-linejoin: round; stroke: rgb(34, 36, 42); stroke-width: 2px; fill: white; fill-opacity: 0.95;"/><text lineHeight="1.2" class="djs-label" style="font-family: Arial, sans-serif; font-size: 12px; font-weight: normal; fill: rgb(34, 36, 42);"><tspan x="14.2578125" y="26.1">Validate Claim Data</tspan></text></g><rect class="djs-hit djs-hit-all" x="0" y="0" width="134" height="45" style="fill: none; stroke-opacity: 0; stroke: white; stroke-width: 15px;"/><rect x="-5" y="-5" rx="14" width="144" height="55" class="djs-outline" style="fill: none;"/></g></g><g class="djs-group"><g class="djs-element djs-shape" data-element-id="node_88bfc728-f37c-4694-946b-2321c2c66d7c" style="display: block;" transform="matrix(1 0 0 1 546 376)"><g class="djs-visual"><rect x="0" y="0" width="74" height="45" rx="10" ry="10" style="stroke-linecap: round; stroke-linejoin: round; stroke: rgb(34, 36, 42); stroke-width: 2px; fill: white; fill-opacity: 0.95;"/><text lineHeight="1.2" class="djs-label" style="font-family: Arial, sans-serif; font-size: 12px; font-weight: normal; fill: rgb(34, 36, 42);"><tspan x="9.3203125" y="26.1">End Claim</tspan></text></g><rect class="djs-hit djs-hit-all" x="0" y="0" width="74" height="45" style="fill: none; stroke-opacity: 0; stroke: white; stroke-width: 15px;"/><rect x="-5" y="-5" rx="14" width="84" height="55" class="djs-outline" style="fill: none;"/></g></g><g class="djs-group"><g class="djs-element djs-shape" data-element-id="node_ea9a9acc-bd6a-4fe0-aa44-047630d09843" style="display: block;" transform="matrix(1 0 0 1 507 301)"><g class="djs-visual"><rect x="0" y="0" width="152" height="45" rx="10" ry="10" style="stroke-linecap: round; stroke-linejoin: round; stroke: rgb(34, 36, 42); stroke-width: 2px; fill: white; fill-opacity: 0.95;"/><text lineHeight="1.2" class="djs-label" style="font-family: Arial, sans-serif; font-size: 12px; font-weight: normal; fill: rgb(34, 36, 42);"><tspan x="8.12890625" y="26.1">Check DUI and Speeding</tspan></text></g><rect class="djs-hit djs-hit-all" x="0" y="0" width="152" height="45" style="fill: none; stroke-opacity: 0; stroke: white; stroke-width: 15px;"/><rect x="-5" y="-5" rx="14" width="162" height="55" class="djs-outline" style="fill: none;"/></g></g><g class="djs-group"><g class="djs-element djs-shape" data-element-id="node_f3deb1cf-fc03-4138-b02e-7a983923bc0b" style="display: block;" transform="matrix(1 0 0 1 861 238)"><g class="djs-visual"><circle cx="10" cy="10" r="10" style="stroke-linecap: round; stroke-linejoin: round; stroke: rgb(34, 36, 42); stroke-width: 4px; fill: white; fill-opacity: 0.95;"/></g><rect class="djs-hit djs-hit-all" x="0" y="0" width="20" height="20" style="fill: none; stroke-opacity: 0; stroke: white; stroke-width: 15px;"/><circle cx="10" cy="10" r="16" class="djs-outline" style="fill: none;"/></g></g><g class="djs-group"><g class="djs-element djs-shape" data-element-id="node_2cb16b15-8acd-4d17-8e98-1baccb0fb97d" style="display: block;" transform="matrix(1 0 0 1 0 238)"><g class="djs-visual"><circle cx="10" cy="10" r="10" style="stroke-linecap: round; stroke-linejoin: round; stroke: rgb(34, 36, 42); stroke-width: 2px; fill: white; fill-opacity: 0.95;"/></g><rect class="djs-hit djs-hit-all" x="0" y="0" width="20" height="20" style="fill: none; stroke-opacity: 0; stroke: white; stroke-width: 15px;"/><circle cx="10" cy="10" r="15" class="djs-outline" style="fill: none;"/></g></g><g class="djs-group"><g class="djs-element djs-shape" data-element-id="node_336f8eb2-7daa-496c-9c5d-3464cab79e19" style="display: block;" transform="matrix(1 0 0 1 756 238)"><g class="djs-visual"><polygon points="10,0 20,10 10,20 0,10" style="stroke-linecap: round; stroke-linejoin: round; stroke: rgb(34, 36, 42); stroke-width: 2px; fill: white; fill-opacity: 0.95;"/><path d="m 9.200000000000001,4 0,5 -5,0 0,1.9999999999999998 5,0 0,5 1.9999999999999998,0 0,-5 5,0 0,-1.9999999999999998 -5,0 0,-5 -1.9999999999999998,0 z" style="fill: rgb(34, 36, 42); stroke-linecap: round; stroke-linejoin: round; stroke: rgb(34, 36, 42); stroke-width: 1px;"/></g><rect class="djs-hit djs-hit-all" x="0" y="0" width="20" height="20" style="fill: none; stroke-opacity: 0; stroke: white; stroke-width: 15px;"/><rect x="2" y="2" rx="4" width="16" height="16" class="djs-outline" style="transform-box: fill-box; transform: rotate(45deg); transform-origin: center center; fill: none;"/></g></g><g class="djs-group"><g class="djs-element djs-connection" data-element-id="node_5ee76a02-63f7-4d29-9e4c-e46bbd82f15b" style="display: block;"><g class="djs-visual"><defs><marker id="marker-5047x442q3xxymtrebqw74uzv" viewBox="0 0 20 20" refX="11" refY="10" markerWidth="10" markerHeight="10" orient="auto"><path d="M 1 5 L 11 10 L 1 15 Z" style="stroke-linecap: round; stroke-linejoin: round; stroke: rgb(34, 36, 42); stroke-width: 1px; fill: rgb(34, 36, 42);"/></marker></defs><path data-corner-radius="5" style="fill: none; stroke-linecap: round; stroke-linejoin: round; stroke: rgb(34, 36, 42); stroke-width: 2px; marker-end: url('#marker-5047x442q3xxymtrebqw74uzv');" d="M659,323.40000343322754L708.5,323.40000343322754C711,323.40000343322754,714.9310934889429,321.35013235779246,716.3621869778857,319.3002612823574L759.0010240838778,258.2252025604248"/></g><rect x="654" y="253.2252025604248" rx="4" width="110.00102408387784" height="75.17480087280273" class="djs-outline" style="fill: none;"/><path d="M659,323.40000343322754L713.5,323.40000343322754L759.0010240838778,258.2252025604248" class="djs-hit djs-hit-stroke" style="fill: none; stroke-opacity: 0; stroke: white; stroke-width: 15px;"/></g></g><g class="djs-group"><g class="djs-element djs-connection" data-element-id="node_ff88bdb5-0e32-418c-8c15-6e7b673c23c3" style="display: block;"><g class="djs-visual"><defs><marker id="marker-8o4r6cw7q6n6ga0ylyalcn3m7" viewBox="0 0 20 20" refX="11" refY="10" markerWidth="10" markerHeight="10" orient="auto"><path d="M 1 5 L 11 10 L 1 15 Z" style="stroke-linecap: round; stroke-linejoin: round; stroke: rgb(34, 36, 42); stroke-width: 1px; fill: rgb(34, 36, 42);"/></marker></defs><path data-corner-radius="5" style="fill: none; stroke-linecap: round; stroke-linejoin: round; stroke: rgb(34, 36, 42); stroke-width: 2px; marker-end: url('#marker-8o4r6cw7q6n6ga0ylyalcn3m7');" d="M650,248.2000026702881L708.5,248.2000026702881C711,248.2000026702881,716,248.2000026702881,718.5,248.2000026702881L756,248.2000026702881"/></g><rect x="645" y="243.2000026702881" rx="4" width="116" height="10" class="djs-outline" style="fill: none;"/><path d="M650,248.2000026702881L713.5,248.2000026702881L756,248.2000026702881" class="djs-hit djs-hit-stroke" style="fill: none; stroke-opacity: 0; stroke: white; stroke-width: 15px;"/></g></g><g class="djs-group"><g class="djs-element djs-connection" data-element-id="node_c8549c0c-2e73-4712-adc2-9d6ee4ded68e" style="display: block;"><g class="djs-visual"><defs><marker id="marker-8bbm3vc9qc65wff3mzm8hhum4" viewBox="0 0 20 20" refX="11" refY="10" markerWidth="10" markerHeight="10" orient="auto"><path d="M 1 5 L 11 10 L 1 15 Z" style="stroke-linecap: round; stroke-linejoin: round; stroke: rgb(34, 36, 42); stroke-width: 1px; fill: rgb(34, 36, 42);"/></marker></defs><path data-corner-radius="5" style="fill: none; stroke-linecap: round; stroke-linejoin: round; stroke: rgb(34, 36, 42); stroke-width: 2px; marker-end: url('#marker-8bbm3vc9qc65wff3mzm8hhum4');" d="M662,97.80000114440918L708.5,97.80000114440918C711,97.80000114440918,714.3239184287378,100.16033129563512,715.1478368574756,102.52066144686106L762.5005120419389,238.17480278015137"/></g><rect x="657" y="92.80000114440918" rx="4" width="110.50051204193892" height="150.3748016357422" class="djs-outline" style="fill: none;"/><path d="M662,97.80000114440918L713.5,97.80000114440918L762.5005120419389,238.17480278015137" class="djs-hit djs-hit-stroke" style="fill: none; stroke-opacity: 0; stroke: white; stroke-width: 15px;"/></g></g><g class="djs-group"><g class="djs-element djs-connection" data-element-id="node_e8e4fc0f-d0c3-44e8-996a-bce32d379a70" style="display: block;"><g class="djs-visual"><defs><marker id="marker-6cm8v67370zbrzhb6jvam675i" viewBox="0 0 20 20" refX="11" refY="10" markerWidth="10" markerHeight="10" orient="auto"><path d="M 1 5 L 11 10 L 1 15 Z" style="stroke-linecap: round; stroke-linejoin: round; stroke: rgb(34, 36, 42); stroke-width: 1px; fill: rgb(34, 36, 42);"/></marker></defs><path data-corner-radius="5" style="fill: none; stroke-linecap: round; stroke-linejoin: round; stroke: rgb(34, 36, 42); stroke-width: 2px; marker-end: url('#marker-6cm8v67370zbrzhb6jvam675i');" d="M776,248.2000026702881L813.5,248.2000026702881C816,248.2000026702881,821,248.2000026702881,823.5,248.2000026702881L861,248.2000026702881"/></g><rect x="771" y="243.2000026702881" rx="4" width="95" height="10" class="djs-outline" style="fill: none;"/><path d="M776,248.2000026702881L818.5,248.2000026702881L861,248.2000026702881" class="djs-hit djs-hit-stroke" style="fill: none; stroke-opacity: 0; stroke: white; stroke-width: 15px;"/></g></g><g class="djs-group"><g class="djs-element djs-connection" data-element-id="node_d240f36e-c5d3-48bf-9e74-537ddb0ae43b" style="display: block;"><g class="djs-visual"><defs><marker id="marker-9dng6lnsdjteqbgdykbksbyep" viewBox="0 0 20 20" refX="11" refY="10" markerWidth="10" markerHeight="10" orient="auto"><path d="M 1 5 L 11 10 L 1 15 Z" style="stroke-linecap: round; stroke-linejoin: round; stroke: rgb(34, 36, 42); stroke-width: 1px; fill: rgb(34, 36, 42);"/></marker></defs><path data-corner-radius="5" style="fill: none; stroke-linecap: round; stroke-linejoin: round; stroke: rgb(34, 36, 42); stroke-width: 2px; marker-end: url('#marker-9dng6lnsdjteqbgdykbksbyep');" d="M647,22.600000381469727L708.5,22.600000381469727C711,22.600000381469727,714.0666409128125,25.034937357230497,714.633281825625,27.469874332991267L763.6670080279592,238.17480278015137"/></g><rect x="642" y="17.600000381469727" rx="4" width="126.66700802795924" height="225.57480239868164" class="djs-outline" style="fill: none;"/><path d="M647,22.600000381469727L713.5,22.600000381469727L763.6670080279592,238.17480278015137" class="djs-hit djs-hit-stroke" style="fill: none; stroke-opacity: 0; stroke: white; stroke-width: 15px;"/></g></g><g class="djs-group"><g class="djs-element djs-connection" data-element-id="node_e5434aa2-1bbc-4506-a942-58d2387fc3f6" style="display: block;"><g class="djs-visual"><defs><marker id="marker-7nxi6nvpl6vmz3o40yoot2opr" viewBox="0 0 20 20" refX="11" refY="10" markerWidth="10" markerHeight="10" orient="auto"><path d="M 1 5 L 11 10 L 1 15 Z" style="stroke-linecap: round; stroke-linejoin: round; stroke: rgb(34, 36, 42); stroke-width: 1px; fill: rgb(34, 36, 42);"/></marker></defs><path data-corner-radius="5" style="fill: none; stroke-linecap: round; stroke-linejoin: round; stroke: rgb(34, 36, 42); stroke-width: 2px; marker-end: url('#marker-7nxi6nvpl6vmz3o40yoot2opr');" d="M659,473.80000495910645L708.5,473.80000495910645C711,473.80000495910645,714.0666409128125,471.3650679833457,714.633281825625,468.9301310075849L763.6670080279592,258.2252025604248"/></g><rect x="654" y="253.2252025604248" rx="4" width="114.66700802795924" height="225.57480239868164" class="djs-outline" style="fill: none;"/><path d="M659,473.80000495910645L713.5,473.80000495910645L763.6670080279592,258.2252025604248" class="djs-hit djs-hit-stroke" style="fill: none; stroke-opacity: 0; stroke: white; stroke-width: 15px;"/></g></g><g class="djs-group"><g class="djs-element djs-connection" data-element-id="node_7dded1fe-a5bd-441c-849b-166b809bac70" style="display: block;"><g class="djs-visual"><defs><marker id="marker-b8j467bvinubmy6webx209gzq" viewBox="0 0 20 20" refX="11" refY="10" markerWidth="10" markerHeight="10" orient="auto"><path d="M 1 5 L 11 10 L 1 15 Z" style="stroke-linecap: round; stroke-linejoin: round; stroke: rgb(34, 36, 42); stroke-width: 1px; fill: rgb(34, 36, 42);"/></marker></defs><path data-corner-radius="5" style="fill: none; stroke-linecap: round; stroke-linejoin: round; stroke: rgb(34, 36, 42); stroke-width: 2px; marker-end: url('#marker-b8j467bvinubmy6webx209gzq');" d="M620,398.600004196167L708.5,398.600004196167C711,398.600004196167,714.3239184287378,396.23967404494107,715.1478368574756,393.8793438937151L762.5005120419389,258.2252025604248"/></g><rect x="615" y="253.2252025604248" rx="4" width="152.50051204193892" height="150.3748016357422" class="djs-outline" style="fill: none;"/><path d="M620,398.600004196167L713.5,398.600004196167L762.5005120419389,258.2252025604248" class="djs-hit djs-hit-stroke" style="fill: none; stroke-opacity: 0; stroke: white; stroke-width: 15px;"/></g></g><g class="djs-group"><g class="djs-element djs-connection" data-element-id="node_39a89a06-2b32-4611-8d7d-ce07b9e784a5" style="display: block;"><g class="djs-visual"><defs><marker id="marker-1tsutb6qtqxow5nigecpom82o" viewBox="0 0 20 20" refX="11" refY="10" markerWidth="10" markerHeight="10" orient="auto"><path d="M 1 5 L 11 10 L 1 15 Z" style="stroke-linecap: round; stroke-linejoin: round; stroke: rgb(34, 36, 42); stroke-width: 1px; fill: rgb(34, 36, 42);"/></marker></defs><path data-corner-radius="5" style="fill: none; stroke-linecap: round; stroke-linejoin: round; stroke: rgb(34, 36, 42); stroke-width: 2px; marker-end: url('#marker-1tsutb6qtqxow5nigecpom82o');" d="M671,173.00000190734863L708.5,173.00000190734863C711,173.00000190734863,714.9310934889429,175.0498729827837,716.3621869778857,177.0997440582188L759.0010240838778,238.17480278015137"/></g><rect x="666" y="168.00000190734863" rx="4" width="98.00102408387784" height="75.17480087280273" class="djs-outline" style="fill: none;"/><path d="M671,173.00000190734863L713.5,173.00000190734863L759.0010240838778,238.17480278015137" class="djs-hit djs-hit-stroke" style="fill: none; stroke-opacity: 0; stroke: white; stroke-width: 15px;"/></g></g><g class="djs-group"><g class="djs-element djs-connection" data-element-id="node_fe92e1eb-8612-4061-af00-dc53d567f7b2" style="display: block;"><g class="djs-visual"><defs><marker id="marker-7ljq2gg300h25n2kv179y92hg" viewBox="0 0 20 20" refX="11" refY="10" markerWidth="10" markerHeight="10" orient="auto"><path d="M 1 5 L 11 10 L 1 15 Z" style="stroke-linecap: round; stroke-linejoin: round; stroke: rgb(34, 36, 42); stroke-width: 1px; fill: rgb(34, 36, 42);"/></marker></defs><path data-corner-radius="5" style="fill: none; stroke-linecap: round; stroke-linejoin: round; stroke: rgb(34, 36, 42); stroke-width: 2px; marker-end: url('#marker-7ljq2gg300h25n2kv179y92hg');" d="M20,248.2000026702881L57.5,248.2000026702881C60,248.2000026702881,65,248.2000026702881,67.5,248.2000026702881L105,248.2000026702881"/></g><rect x="15" y="243.2000026702881" rx="4" width="95" height="10" class="djs-outline" style="fill: none;"/><path d="M20,248.2000026702881L62.5,248.2000026702881L105,248.2000026702881" class="djs-hit djs-hit-stroke" style="fill: none; stroke-opacity: 0; stroke: white; stroke-width: 15px;"/></g></g><g class="djs-group"><g class="djs-element djs-connection" data-element-id="node_fd8e7877-87c6-4fdb-a8cc-c385bb4ecea2" style="display: block;"><g class="djs-visual"><defs><marker id="marker-exgmll9d7hxv9q63if99rz17k" viewBox="0 0 20 20" refX="11" refY="10" markerWidth="10" markerHeight="10" orient="auto"><path d="M 1 5 L 11 10 L 1 15 Z" style="stroke-linecap: round; stroke-linejoin: round; stroke: rgb(34, 36, 42); stroke-width: 1px; fill: rgb(34, 36, 42);"/></marker></defs><path data-corner-radius="5" style="fill: none; stroke-linecap: round; stroke-linejoin: round; stroke: rgb(34, 36, 42); stroke-width: 2px; marker-end: url('#marker-exgmll9d7hxv9q63if99rz17k');" d="M156.56515963214346,225.60000228881836L231.72804090276463,27.275485485469616C232.61402045138232,24.93774293346967,236,22.600000381469727,238.5,22.600000381469727L338,22.600000381469727C340.5,22.600000381469727,345.5,22.600000381469727,348,22.600000381469727L447.5,22.600000381469727C450,22.600000381469727,455,22.600000381469727,457.5,22.600000381469727L519,22.600000381469727"/></g><rect x="151.56515963214346" y="17.600000381469727" rx="4" width="372.4348403678565" height="213.00000190734863" class="djs-outline" style="fill: none;"/><path d="M156.56515963214346,225.60000228881836L233.5,22.600000381469727L343,22.600000381469727L452.5,22.600000381469727L519,22.600000381469727" class="djs-hit djs-hit-stroke" style="fill: none; stroke-opacity: 0; stroke: white; stroke-width: 15px;"/></g></g><g class="djs-group"><g class="djs-element djs-connection" data-element-id="node_abe5f200-14e4-4ada-b5e7-9a3896a93bbd" style="display: block;"><g class="djs-visual"><defs><marker id="marker-3n11t6kzrz6qu9bh8tgipntkp" viewBox="0 0 20 20" refX="11" refY="10" markerWidth="10" markerHeight="10" orient="auto"><path d="M 1 5 L 11 10 L 1 15 Z" style="stroke-linecap: round; stroke-linejoin: round; stroke: rgb(34, 36, 42); stroke-width: 1px; fill: rgb(34, 36, 42);"/></marker></defs><path data-corner-radius="5" style="fill: none; stroke-linecap: round; stroke-linejoin: round; stroke: rgb(34, 36, 42); stroke-width: 2px; marker-end: url('#marker-3n11t6kzrz6qu9bh8tgipntkp');" d="M191,248.2000026702881L228.5,248.2000026702881C231,248.2000026702881,236,248.2000026702881,238.5,248.2000026702881L276,248.2000026702881"/></g><rect x="186" y="243.2000026702881" rx="4" width="95" height="10" class="djs-outline" style="fill: none;"/><path d="M191,248.2000026702881L233.5,248.2000026702881L276,248.2000026702881" class="djs-hit djs-hit-stroke" style="fill: none; stroke-opacity: 0; stroke: white; stroke-width: 15px;"/></g></g><g class="djs-group"><g class="djs-element djs-connection" data-element-id="node_9fde1bd2-297f-4e2c-b162-a190761d5a4b" style="display: block;"><g class="djs-visual"><defs><marker id="marker-53xgqs57v5k2codjdwlz99u2s" viewBox="0 0 20 20" refX="11" refY="10" markerWidth="10" markerHeight="10" orient="auto"><path d="M 1 5 L 11 10 L 1 15 Z" style="stroke-linecap: round; stroke-linejoin: round; stroke: rgb(34, 36, 42); stroke-width: 1px; fill: rgb(34, 36, 42);"/></marker></defs><path data-corner-radius="5" style="fill: none; stroke-linecap: round; stroke-linejoin: round; stroke: rgb(34, 36, 42); stroke-width: 2px; marker-end: url('#marker-53xgqs57v5k2codjdwlz99u2s');" d="M156.56515963214346,270.8000030517578L231.72804090276463,469.12451985510654C232.61402045138232,471.4622624071065,236,473.80000495910645,238.5,473.80000495910645L338,473.80000495910645C340.5,473.80000495910645,345.5,473.80000495910645,348,473.80000495910645L447.5,473.80000495910645C450,473.80000495910645,455,473.80000495910645,457.5,473.80000495910645L507,473.80000495910645"/></g><rect x="151.56515963214346" y="265.8000030517578" rx="4" width="360.4348403678565" height="213.00000190734863" class="djs-outline" style="fill: none;"/><path d="M156.56515963214346,270.8000030517578L233.5,473.80000495910645L343,473.80000495910645L452.5,473.80000495910645L507,473.80000495910645" class="djs-hit djs-hit-stroke" style="fill: none; stroke-opacity: 0; stroke: white; stroke-width: 15px;"/></g></g><g class="djs-group"><g class="djs-element djs-connection" data-element-id="node_ddf94bb1-0dcc-4139-a6a8-28c90451c3c9" style="display: block;"><g class="djs-visual"><defs><marker id="marker-ep94wjfczwa9qiymql9h7nu1i" viewBox="0 0 20 20" refX="11" refY="10" markerWidth="10" markerHeight="10" orient="auto"><path d="M 1 5 L 11 10 L 1 15 Z" style="stroke-linecap: round; stroke-linejoin: round; stroke: rgb(34, 36, 42); stroke-width: 1px; fill: rgb(34, 36, 42);"/></marker></defs><path data-corner-radius="5" style="fill: none; stroke-linecap: round; stroke-linejoin: round; stroke: rgb(34, 36, 42); stroke-width: 2px; marker-end: url('#marker-ep94wjfczwa9qiymql9h7nu1i');" d="M359.454122451223,225.60000228881836L449.5570644675177,101.84217017249958C451.0285322337589,99.82108565845438,455,97.80000114440918,457.5,97.80000114440918L504,97.80000114440918"/></g><rect x="354.454122451223" y="92.80000114440918" rx="4" width="154.545877548777" height="137.80000114440918" class="djs-outline" style="fill: none;"/><path d="M359.454122451223,225.60000228881836L452.5,97.80000114440918L504,97.80000114440918" class="djs-hit djs-hit-stroke" style="fill: none; stroke-opacity: 0; stroke: white; stroke-width: 15px;"/></g></g><g class="djs-group"><g class="djs-element djs-connection" data-element-id="node_24b1d992-60ac-4d2d-bd12-0f9985314c09" style="display: block;"><g class="djs-visual"><defs><marker id="marker-cv83n8dwxzp4lc9ycqggljdql" viewBox="0 0 20 20" refX="11" refY="10" markerWidth="10" markerHeight="10" orient="auto"><path d="M 1 5 L 11 10 L 1 15 Z" style="stroke-linecap: round; stroke-linejoin: round; stroke: rgb(34, 36, 42); stroke-width: 1px; fill: rgb(34, 36, 42);"/></marker></defs><path data-corner-radius="5" style="fill: none; stroke-linecap: round; stroke-linejoin: round; stroke: rgb(34, 36, 42); stroke-width: 2px; marker-end: url('#marker-cv83n8dwxzp4lc9ycqggljdql');" d="M375.908244902446,225.60000228881836L448.3783631719431,175.83056896318828C450.43918158597154,174.41528543526846,455,173.00000190734863,457.5,173.00000190734863L495,173.00000190734863"/></g><rect x="370.908244902446" y="168.00000190734863" rx="4" width="129.09175509755403" height="62.60000038146973" class="djs-outline" style="fill: none;"/><path d="M375.908244902446,225.60000228881836L452.5,173.00000190734863L495,173.00000190734863" class="djs-hit djs-hit-stroke" style="fill: none; stroke-opacity: 0; stroke: white; stroke-width: 15px;"/></g></g><g class="djs-group"><g class="djs-element djs-connection" data-element-id="node_d5523230-4883-48a4-a1ae-31e3399aa95e" style="display: block;"><g class="djs-visual"><defs><marker id="marker-5bsenzqe0cq9gl2ncf8fm0c40" viewBox="0 0 20 20" refX="11" refY="10" markerWidth="10" markerHeight="10" orient="auto"><path d="M 1 5 L 11 10 L 1 15 Z" style="stroke-linecap: round; stroke-linejoin: round; stroke: rgb(34, 36, 42); stroke-width: 1px; fill: rgb(34, 36, 42);"/></marker></defs><path data-corner-radius="5" style="fill: none; stroke-linecap: round; stroke-linejoin: round; stroke: rgb(34, 36, 42); stroke-width: 2px; marker-end: url('#marker-5bsenzqe0cq9gl2ncf8fm0c40');" d="M410,248.2000026702881L447.5,248.2000026702881C450,248.2000026702881,455,248.2000026702881,457.5,248.2000026702881L516,248.2000026702881"/></g><rect x="405" y="243.2000026702881" rx="4" width="116" height="10" class="djs-outline" style="fill: none;"/><path d="M410,248.2000026702881L452.5,248.2000026702881L516,248.2000026702881" class="djs-hit djs-hit-stroke" style="fill: none; stroke-opacity: 0; stroke: white; stroke-width: 15px;"/></g></g><g class="djs-group"><g class="djs-element djs-connection" data-element-id="node_02f9ca2d-f660-4a7f-ab9b-72b2c960a980" style="display: block;"><g class="djs-visual"><defs><marker id="marker-cqs2z1uej26l7hrjmm6anhpho" viewBox="0 0 20 20" refX="11" refY="10" markerWidth="10" markerHeight="10" orient="auto"><path d="M 1 5 L 11 10 L 1 15 Z" style="stroke-linecap: round; stroke-linejoin: round; stroke: rgb(34, 36, 42); stroke-width: 1px; fill: rgb(34, 36, 42);"/></marker></defs><path data-corner-radius="5" style="fill: none; stroke-linecap: round; stroke-linejoin: round; stroke: rgb(34, 36, 42); stroke-width: 2px; marker-end: url('#marker-cqs2z1uej26l7hrjmm6anhpho');" d="M375.908244902446,270.8000030517578L448.3783631719431,320.5694363773879C450.43918158597154,321.9847199053077,455,323.40000343322754,457.5,323.40000343322754L507,323.40000343322754"/></g><rect x="370.908244902446" y="265.8000030517578" rx="4" width="141.09175509755403" height="62.60000038146973" class="djs-outline" style="fill: none;"/><path d="M375.908244902446,270.8000030517578L452.5,323.40000343322754L507,323.40000343322754" class="djs-hit djs-hit-stroke" style="fill: none; stroke-opacity: 0; stroke: white; stroke-width: 15px;"/></g></g><g class="djs-group"><g class="djs-element djs-connection" data-element-id="node_42873967-c2df-4816-b488-2d9b904967dc" style="display: block;"><g class="djs-visual"><defs><marker id="marker-arebtpq9r3cailskfjmvpffcj" viewBox="0 0 20 20" refX="11" refY="10" markerWidth="10" markerHeight="10" orient="auto"><path d="M 1 5 L 11 10 L 1 15 Z" style="stroke-linecap: round; stroke-linejoin: round; stroke: rgb(34, 36, 42); stroke-width: 1px; fill: rgb(34, 36, 42);"/></marker></defs><path data-corner-radius="5" style="fill: none; stroke-linecap: round; stroke-linejoin: round; stroke: rgb(34, 36, 42); stroke-width: 2px; marker-end: url('#marker-arebtpq9r3cailskfjmvpffcj');" d="M359.454122451223,270.8000030517578L449.5570644675177,394.5578351680766C451.0285322337589,396.5789196821218,455,398.600004196167,457.5,398.600004196167L546,398.600004196167"/></g><rect x="354.454122451223" y="265.8000030517578" rx="4" width="196.545877548777" height="137.80000114440918" class="djs-outline" style="fill: none;"/><path d="M359.454122451223,270.8000030517578L452.5,398.600004196167L546,398.600004196167" class="djs-hit djs-hit-stroke" style="fill: none; stroke-opacity: 0; stroke: white; stroke-width: 15px;"/></g></g></svg>